<svg xmlns="http://www.w3.org/2000/svg" version="1.1" xmlns:xlink="http://www.w3.org/1999/xlink" xmlns:svgjs="http://svgjs.dev/svgjs" width="2000" height="1999" viewBox="0 0 2000 1999"><g transform="matrix(1,0,0,1,-0.431486880466764,-0.4312711370263287)"><svg viewBox="0 0 343 343" data-background-color="#ffffff" preserveAspectRatio="xMidYMid meet" height="1999" width="2000" xmlns="http://www.w3.org/2000/svg" xmlns:xlink="http://www.w3.org/1999/xlink"><g id="tight-bounds" transform="matrix(1,0,0,1,0.0740000000000407,0.07400000000001228)"><svg viewBox="0 0 342.85155851775386 342.85155851775386" height="342.85155851775386" width="342.85155851775386"><g><svg></svg></g><g><svg viewBox="0 0 342.85155851775386 342.85155851775386" height="342.85155851775386" width="342.85155851775386"><g><path d="M0 171.426c0-94.676 76.75-171.426 171.426-171.426 94.676 0 171.426 76.75 171.426 171.426 0 94.676-76.75 171.426-171.426 171.426-94.676 0-171.426-76.75-171.426-171.426zM171.426 340.858c93.575 0 169.432-75.857 169.432-169.432 0-93.575-75.857-169.432-169.432-169.432-93.575 0-169.432 75.857-169.432 169.432 0 93.575 75.857 169.432 169.432 169.432z" data-fill-palette-color="tertiary" fill="#6b7280" stroke="transparent"></path><ellipse rx="164.56874808852186" ry="164.56874808852186" cx="171.42577925887693" cy="171.42577925887693" fill="#6b7280" stroke="transparent" stroke-width="0" fill-opacity="1" data-fill-palette-color="tertiary"></ellipse></g><g transform="matrix(1,0,0,1,64.84655864529837,142.48138995691818)"><svg viewBox="0 0 213.1584412271571 57.8887786039175" height="57.8887786039175" width="213.1584412271571"><g><svg viewBox="0 0 213.1584412271571 57.8887786039175" height="57.8887786039175" width="213.1584412271571"><g><svg viewBox="0 0 213.1584412271571 57.8887786039175" height="57.8887786039175" width="213.1584412271571"><g transform="matrix(1,0,0,1,0,35.77758755983876)"><svg viewBox="0 0 213.1584412271571 22.11119104407874" height="22.11119104407874" width="213.1584412271571"><g id="textblocktransform"><svg viewBox="0 0 213.1584412271571 22.11119104407874" height="22.11119104407874" width="213.1584412271571" id="textblock"><g><svg viewBox="0 0 213.1584412271571 22.11119104407874" height="22.11119104407874" width="213.1584412271571"><g transform="matrix(1,0,0,1,0,0)"><svg width="213.1584412271571" viewBox="3.52 -37.89 380.78000000000003 39.5" height="22.11119104407874" data-palette-color="#ffffff"><path d="M31.15-25.73L31.15-25.73Q26.9-25.49 22.78-25.34 18.65-25.2 14.45-24.8L14.45-24.8 14.84-20.61 22.95-20.07 24.32-15.19Q22.12-14.7 19.9-14.43 17.68-14.16 15.48-13.72L15.48-13.72Q15.97-10.06 16.16-6.42 16.36-2.78 16.36 0.88L16.36 0.88 3.52 1.32Q3.76-4.39 3.81-10.03 3.86-15.67 3.86-21.39L3.86-21.39 3.86-25.73 3.86-35.55Q6.69-35.6 9.45-35.67 12.21-35.74 15.04-35.74L15.04-35.74Q18.85-35.74 22.66-35.57 26.46-35.4 30.32-35.21L30.32-35.21Q30.62-32.86 30.88-30.49 31.15-28.13 31.15-25.73ZM43.7-32.67L43.7-32.67Q43.7-31.69 43.28-30.83 42.87-29.98 42.16-29.35 41.45-28.71 40.57-28.34 39.69-27.98 38.82-27.98L38.82-27.98Q37.84-27.98 36.98-28.42 36.13-28.86 35.5-29.54 34.86-30.22 34.52-31.13 34.18-32.03 34.18-32.96L34.18-32.96Q34.18-33.89 34.54-34.69 34.91-35.5 35.52-36.08 36.13-36.67 36.94-37.01 37.74-37.35 38.67-37.35L38.67-37.35Q39.6-37.35 40.5-36.99 41.4-36.62 42.11-35.96 42.82-35.3 43.26-34.45 43.7-33.59 43.7-32.67ZM45.7-24.37L45.7-24.37Q45.46-21.78 45.31-19.24 45.16-16.7 45.02-14.16L45.02-14.16Q44.82-11.18 44.36-8.25 43.89-5.32 43.31-2.39L43.31-2.39 35.84-1.61Q35.84-3.17 35.86-4.69 35.89-6.2 35.89-7.76L35.89-7.76Q35.89-11.77 35.74-15.77 35.59-19.78 35.45-23.78L35.45-23.78Q38.03-23.88 40.55-24.07 43.06-24.27 45.7-24.37ZM79.73-14.5L79.73-14.5Q79.73-13.18 79.73-11.84 79.73-10.5 79.63-9.18L79.63-9.18 68.75-8.5Q68.94-11.04 69.06-13.53 69.18-16.02 69.18-18.6L69.18-18.6Q69.18-18.85 69.18-19.43 69.18-20.02 69.14-20.68 69.09-21.34 69.04-21.92 68.99-22.51 68.94-22.75L68.94-22.75Q68.7-23.44 68.43-23.93 68.16-24.41 67.79-24.71 67.43-25 66.89-25.12 66.35-25.24 65.57-25.24L65.57-25.24Q64.99-25.24 64.08-25.15 63.18-25.05 62.25-24.85 61.32-24.66 60.49-24.37 59.66-24.07 59.32-23.68L59.32-23.68 59.22-9.28Q59.13-9.47 58.66-9.47 58.2-9.47 58-9.47L58-9.47Q56.54-9.47 54.98-9.35 53.41-9.23 51.95-9.03L51.95-9.03Q51.31-14.79 50.83-20.51 50.34-26.22 49.7-31.98L49.7-31.98Q50.68-32.03 51.66-32.06 52.63-32.08 53.61-32.08L53.61-32.08Q54.88-32.08 56.17-32.01 57.47-31.93 58.74-31.88L58.74-31.88 59.08-28.13Q60.44-30.37 62.79-31.88 65.13-33.4 67.82-33.4L67.82-33.4Q69.18-33.4 70.65-33.25 72.11-33.11 73.46-32.67 74.8-32.23 76-31.45 77.19-30.66 78.02-29.44L78.02-29.44Q78.41-28.86 78.68-27.71 78.95-26.56 79.15-25.12 79.34-23.68 79.46-22.07 79.58-20.46 79.63-18.99 79.68-17.53 79.71-16.33 79.73-15.14 79.73-14.5ZM119.33-22.02L119.33-22.02Q119.33-17.92 119.04-13.87 118.74-9.81 118.45-5.76L118.45-5.76Q112.98-5.27 107.56-4.93 102.14-4.59 96.67-4.59L96.67-4.59Q96.18-4.59 94.87-4.61 93.55-4.64 92.08-4.71 90.62-4.79 89.3-4.91 87.98-5.03 87.54-5.27L87.54-5.27Q85.93-6.15 85.3-7.5 84.66-8.84 84.66-10.55L84.66-10.55Q84.66-11.13 84.71-12.11 84.76-13.09 84.9-14.16 85.05-15.23 85.3-16.16 85.54-17.09 85.88-17.53L85.88-17.53Q86.32-18.12 87.88-18.53 89.45-18.95 91.62-19.19 93.79-19.43 96.31-19.58 98.82-19.73 101.12-19.8 103.41-19.87 105.22-19.87 107.02-19.87 107.81-19.87L107.81-19.87Q107.95-20.95 107.95-21.97L107.95-21.97Q107.95-22.07 107.95-22.49 107.95-22.9 107.9-23L107.9-23Q107.76-23.29 106.97-23.49 106.19-23.68 105.05-23.78 103.9-23.88 102.56-23.95 101.21-24.02 99.94-24.02 98.67-24.02 97.7-24.02 96.72-24.02 96.28-24.02L96.28-24.02Q93.21-24.02 90.13-23.9 87.05-23.78 83.98-23.68L83.98-23.68Q84.17-25.54 84.29-27.44 84.42-29.35 84.32-31.2L84.32-31.2Q87.88-31.84 91.47-32.1 95.06-32.37 98.72-32.37L98.72-32.37Q100.04-32.37 101.6-32.35 103.17-32.32 104.73-32.25 106.29-32.18 107.83-32.03 109.37-31.88 110.69-31.64L110.69-31.64Q112.05-31.4 113.4-30.76 114.74-30.13 115.91-29.2 117.08-28.27 117.96-27.08 118.84-25.88 119.23-24.51L119.23-24.51Q119.28-24.37 119.3-24.02 119.33-23.68 119.33-23.27 119.33-22.85 119.33-22.51 119.33-22.17 119.33-22.02ZM108.44-10.55L108.44-10.55 108.44-16.8Q107.02-16.85 105.61-16.87 104.19-16.89 102.78-16.89L102.78-16.89Q102.48-16.89 101.14-16.87 99.8-16.85 98.26-16.75 96.72-16.65 95.45-16.5 94.18-16.36 93.99-16.06L93.99-16.06Q93.74-15.67 93.67-15.26 93.6-14.84 93.6-14.4L93.6-14.4Q93.6-14.06 93.64-13.48 93.69-12.89 93.82-12.26 93.94-11.62 94.08-11.08 94.23-10.55 94.47-10.3L94.47-10.3Q94.67-10.06 95.13-9.94 95.6-9.81 96.14-9.74 96.67-9.67 97.21-9.64 97.75-9.62 98.04-9.62L98.04-9.62Q99.21-9.62 100.55-9.72 101.9-9.81 103.29-9.94 104.68-10.06 106-10.23 107.32-10.4 108.44-10.55ZM153.07-14.5L153.07-14.5Q153.07-13.18 153.07-11.84 153.07-10.5 152.97-9.18L152.97-9.18 142.08-8.5Q142.28-11.04 142.4-13.53 142.52-16.02 142.52-18.6L142.52-18.6Q142.52-18.85 142.52-19.43 142.52-20.02 142.47-20.68 142.42-21.34 142.37-21.92 142.32-22.51 142.28-22.75L142.28-22.75Q142.03-23.44 141.76-23.93 141.49-24.41 141.13-24.71 140.76-25 140.22-25.12 139.69-25.24 138.91-25.24L138.91-25.24Q138.32-25.24 137.42-25.15 136.51-25.05 135.59-24.85 134.66-24.66 133.83-24.37 133-24.07 132.66-23.68L132.66-23.68 132.56-9.28Q132.46-9.47 132-9.47 131.53-9.47 131.34-9.47L131.34-9.47Q129.87-9.47 128.31-9.35 126.75-9.23 125.28-9.03L125.28-9.03Q124.65-14.79 124.16-20.51 123.67-26.22 123.04-31.98L123.04-31.98Q124.01-32.03 124.99-32.06 125.97-32.08 126.94-32.08L126.94-32.08Q128.21-32.08 129.51-32.01 130.8-31.93 132.07-31.88L132.07-31.88 132.41-28.13Q133.78-30.37 136.12-31.88 138.47-33.4 141.15-33.4L141.15-33.4Q142.52-33.4 143.98-33.25 145.45-33.11 146.79-32.67 148.13-32.23 149.33-31.45 150.53-30.66 151.36-29.44L151.36-29.44Q151.75-28.86 152.02-27.71 152.28-26.56 152.48-25.12 152.68-23.68 152.8-22.07 152.92-20.46 152.97-18.99 153.02-17.53 153.04-16.33 153.07-15.14 153.07-14.5ZM189.78-25.73L189.78-25.73Q189.78-23.49 189.2-21.39L189.2-21.39Q188.85-21.34 187.17-21.26 185.49-21.19 183.17-21.07 180.85-20.95 178.19-20.78 175.52-20.61 173.25-20.41 170.98-20.21 169.4-20 167.81-19.78 167.61-19.58L167.61-19.58Q166.83-18.9 166.44-17.92 166.05-16.94 166.05-15.97L166.05-15.97Q166.05-15.38 166.17-15.06 166.3-14.75 166.59-14.36L166.59-14.36Q166.74-14.21 167.61-14.11 168.49-14.01 169.57-13.96 170.64-13.92 171.57-13.89 172.5-13.87 172.64-13.87L172.64-13.87Q176.16-13.87 179.68-14.01 183.19-14.16 186.71-14.4L186.71-14.4 187.1-6.01Q182.21-5.62 177.31-5.25 172.4-4.88 167.47-4.88L167.47-4.88Q167.22-4.88 166.76-4.88 166.3-4.88 165.76-4.91 165.22-4.93 164.73-4.98 164.25-5.03 164.05-5.08L164.05-5.08Q163.02-5.37 162.02-5.74 161.02-6.1 160.14-6.67 159.26-7.23 158.61-8.01 157.95-8.79 157.65-9.91L157.65-9.91Q157.46-10.64 157.34-11.84 157.21-13.04 157.17-14.31 157.12-15.58 157.09-16.8 157.07-18.02 157.07-18.85L157.07-18.85Q157.07-20.75 157.12-22.41 157.17-24.07 157.65-25.46 158.14-26.86 159.24-27.95 160.34-29.05 162.39-29.88L162.39-29.88Q163.32-30.27 165.17-30.49 167.03-30.71 169.05-30.83 171.08-30.96 172.94-31.01 174.79-31.05 175.82-31.05L175.82-31.05Q179.24-31.05 182.63-30.91 186.02-30.76 189.44-30.52L189.44-30.52Q189.59-29.3 189.68-28.1 189.78-26.9 189.78-25.73ZM226.74-18.12L226.74-18.12Q220.35-17.77 214-17.55 207.65-17.33 201.25-17.09L201.25-17.09Q201.21-16.89 201.21-16.7 201.21-16.5 201.21-16.31L201.21-16.31Q201.21-14.65 201.96-13.77 202.72-12.89 203.84-12.52 204.97-12.16 206.33-12.11 207.7-12.06 208.87-12.06L208.87-12.06Q212.14-12.06 215.41-12.28 218.69-12.5 222.01-12.74L222.01-12.74 222.4-4.98Q219.17-4.83 215.98-4.74 212.78-4.64 209.56-4.64L209.56-4.64Q208.87-4.64 207.04-4.66 205.21-4.69 203.13-4.81 201.06-4.93 199.25-5.13 197.45-5.32 196.86-5.66L196.86-5.66Q195.35-6.54 194.49-7.91 193.64-9.28 193.17-10.89 192.71-12.5 192.54-14.18 192.37-15.87 192.32-17.43L192.32-17.43Q192.27-17.68 192.29-17.94 192.32-18.21 192.32-18.46L192.32-18.46Q192.32-21.04 192.88-23.27 193.44-25.49 194.96-27.59L194.96-27.59Q195.98-29.05 197.98-30.03 199.99-31.01 202.33-31.57 204.67-32.13 207.02-32.35 209.36-32.57 211.07-32.57L211.07-32.57Q212.58-32.57 214.78-32.3 216.98-32.03 219.15-31.4 221.32-30.76 223.08-29.76 224.84-28.76 225.47-27.29L225.47-27.29Q225.57-27 225.69-26.29 225.82-25.59 225.96-24.68 226.11-23.78 226.23-22.75 226.35-21.73 226.45-20.8 226.55-19.87 226.62-19.14 226.69-18.41 226.74-18.12ZM203.79-21.14L220.1-21.68Q219.81-23.83 219-25.07 218.2-26.32 217-26.93 215.81-27.54 214.27-27.71 212.73-27.88 210.97-27.88L210.97-27.88Q210.39-27.88 209.51-27.86 208.63-27.83 207.75-27.71 206.87-27.59 206.09-27.34 205.31-27.1 204.87-26.66L204.87-26.66Q204.53-26.37 204.31-25.85 204.09-25.34 203.94-24.76 203.79-24.17 203.72-23.61 203.65-23.05 203.65-22.66L203.65-22.66Q203.65-21.88 203.79-21.14L203.79-21.14ZM269.56-15.72L269.56-15.72Q269.56-11.43 269.54-7.25 269.51-3.08 269.46 1.22L269.46 1.22Q266.44 1.07 263.46 1.07L263.46 1.07Q261.99 1.07 260.5 1.22 259.02 1.37 257.55 1.61L257.55 1.61Q255.7-2.44 253.84-6.42 251.98-10.4 250.13-14.45L250.13-14.45Q248.76-17.43 247.54-20.41 246.32-23.39 245.1-26.42L245.1-26.42Q244.66-19.82 244.2-13.31 243.73-6.79 243.44-0.2L243.44-0.2 232.89-0.49Q232.65-9.86 232.45-19.14 232.26-28.42 231.77-37.79L231.77-37.79 250.86-37.89Q251.84-35.45 252.69-32.98 253.55-30.52 254.33-27.98L254.33-27.98Q255.45-24.12 256.87-20.34 258.28-16.55 259.7-12.74L259.7-12.74Q259.65-18.85 259.48-24.9 259.31-30.96 259.21-37.11L259.21-37.11 269.07-35.94Q269.27-30.86 269.42-25.83 269.56-20.8 269.56-15.72ZM309.26-18.12L309.26-18.12Q302.86-17.77 296.51-17.55 290.17-17.33 283.77-17.09L283.77-17.09Q283.72-16.89 283.72-16.7 283.72-16.5 283.72-16.31L283.72-16.31Q283.72-14.65 284.48-13.77 285.23-12.89 286.36-12.52 287.48-12.16 288.85-12.11 290.21-12.06 291.39-12.06L291.39-12.06Q294.66-12.06 297.93-12.28 301.2-12.5 304.52-12.74L304.52-12.74 304.91-4.98Q301.69-4.83 298.49-4.74 295.29-4.64 292.07-4.64L292.07-4.64Q291.39-4.64 289.56-4.66 287.72-4.69 285.65-4.81 283.57-4.93 281.77-5.13 279.96-5.32 279.37-5.66L279.37-5.66Q277.86-6.54 277.01-7.91 276.15-9.28 275.69-10.89 275.22-12.5 275.05-14.18 274.88-15.87 274.83-17.43L274.83-17.43Q274.78-17.68 274.81-17.94 274.83-18.21 274.83-18.46L274.83-18.46Q274.83-21.04 275.4-23.27 275.96-25.49 277.47-27.59L277.47-27.59Q278.5-29.05 280.5-30.03 282.5-31.01 284.84-31.57 287.19-32.13 289.53-32.35 291.87-32.57 293.58-32.57L293.58-32.57Q295.1-32.57 297.29-32.3 299.49-32.03 301.66-31.4 303.84-30.76 305.6-29.76 307.35-28.76 307.99-27.29L307.99-27.29Q308.09-27 308.21-26.29 308.33-25.59 308.48-24.68 308.62-23.78 308.74-22.75 308.87-21.73 308.96-20.8 309.06-19.87 309.14-19.14 309.21-18.41 309.26-18.12ZM286.31-21.14L302.62-21.68Q302.32-23.83 301.52-25.07 300.71-26.32 299.52-26.93 298.32-27.54 296.78-27.71 295.24-27.88 293.49-27.88L293.49-27.88Q292.9-27.88 292.02-27.86 291.14-27.83 290.26-27.71 289.38-27.59 288.6-27.34 287.82-27.1 287.38-26.66L287.38-26.66Q287.04-26.37 286.82-25.85 286.6-25.34 286.45-24.76 286.31-24.17 286.23-23.61 286.16-23.05 286.16-22.66L286.16-22.66Q286.16-21.88 286.31-21.14L286.31-21.14ZM346.22-18.12L346.22-18.12Q339.82-17.77 333.47-17.55 327.13-17.33 320.73-17.09L320.73-17.09Q320.68-16.89 320.68-16.7 320.68-16.5 320.68-16.31L320.68-16.31Q320.68-14.65 321.44-13.77 322.19-12.89 323.32-12.52 324.44-12.16 325.81-12.11 327.17-12.06 328.35-12.06L328.35-12.06Q331.62-12.06 334.89-12.28 338.16-12.5 341.48-12.74L341.48-12.74 341.87-4.98Q338.65-4.83 335.45-4.74 332.25-4.64 329.03-4.64L329.03-4.64Q328.35-4.64 326.52-4.66 324.68-4.69 322.61-4.81 320.53-4.93 318.73-5.13 316.92-5.32 316.33-5.66L316.33-5.66Q314.82-6.54 313.97-7.91 313.11-9.28 312.65-10.89 312.18-12.5 312.01-14.18 311.84-15.87 311.79-17.43L311.79-17.43Q311.75-17.68 311.77-17.94 311.79-18.21 311.79-18.46L311.79-18.46Q311.79-21.04 312.36-23.27 312.92-25.49 314.43-27.59L314.43-27.59Q315.46-29.05 317.46-30.03 319.46-31.01 321.8-31.57 324.15-32.13 326.49-32.35 328.83-32.57 330.54-32.57L330.54-32.57Q332.06-32.57 334.25-32.3 336.45-32.03 338.62-31.4 340.8-30.76 342.56-29.76 344.31-28.76 344.95-27.29L344.95-27.29Q345.05-27 345.17-26.29 345.29-25.59 345.44-24.68 345.58-23.78 345.71-22.75 345.83-21.73 345.92-20.8 346.02-19.87 346.1-19.14 346.17-18.41 346.22-18.12ZM323.27-21.14L339.58-21.68Q339.28-23.83 338.48-25.07 337.67-26.32 336.48-26.93 335.28-27.54 333.74-27.71 332.2-27.88 330.45-27.88L330.45-27.88Q329.86-27.88 328.98-27.86 328.1-27.83 327.22-27.71 326.34-27.59 325.56-27.34 324.78-27.1 324.34-26.66L324.34-26.66Q324-26.37 323.78-25.85 323.56-25.34 323.42-24.76 323.27-24.17 323.2-23.61 323.12-23.05 323.12-22.66L323.12-22.66Q323.12-21.88 323.27-21.14L323.27-21.14ZM373.75-8.64L373.75-8.64 372.92-0.05Q371.36 0.05 369.8 0.12 368.24 0.2 366.67 0.2L366.67 0.2Q365.84 0.2 364.48 0.15 363.11 0.1 361.64-0.02 360.18-0.15 358.86-0.37 357.54-0.59 356.76-0.93L356.76-0.93Q355.59-1.46 354.83-2.34 354.08-3.22 353.59-4.27 353.1-5.32 352.81-6.52 352.51-7.71 352.37-8.89L352.37-8.89Q352.22-10.01 352.15-11.3 352.07-12.6 352.05-13.96 352.03-15.33 352.03-16.63 352.03-17.92 352.03-19.04L352.03-19.04 352.03-20.51 349-20.51Q349.19-22.71 349.22-24.85 349.24-27 349.44-29.2L349.44-29.2 352.37-29.1 352.37-36.33Q355.15-35.79 357.91-35.77 360.67-35.74 363.45-35.55L363.45-35.55 363.35-28.08 367.46-27.83Q367.46-27.49 367.48-27.2 367.5-26.9 367.5-26.56L367.5-26.56Q367.5-25.2 367.28-23.9 367.06-22.61 366.72-21.29L366.72-21.29 363.16-21.29Q363.06-19.04 363.01-16.8 362.96-14.55 362.96-12.3L362.96-12.3Q362.96-11.23 363.04-10.38 363.11-9.52 363.43-8.94 363.74-8.35 364.48-8.06 365.21-7.76 366.53-7.76L366.53-7.76Q368.33-7.76 370.14-8.01 371.95-8.25 373.75-8.64ZM382.3-32.67L382.3-32.67Q382.3-31.69 381.88-30.83 381.47-29.98 380.76-29.35 380.05-28.71 379.17-28.34 378.29-27.98 377.41-27.98L377.41-27.98Q376.44-27.98 375.58-28.42 374.73-28.86 374.09-29.54 373.46-30.22 373.12-31.13 372.78-32.03 372.78-32.96L372.78-32.96Q372.78-33.89 373.14-34.69 373.51-35.5 374.12-36.08 374.73-36.67 375.53-37.01 376.34-37.35 377.27-37.35L377.27-37.35Q378.2-37.35 379.1-36.99 380-36.62 380.71-35.96 381.42-35.3 381.86-34.45 382.3-33.59 382.3-32.67ZM384.3-24.37L384.3-24.37Q384.05-21.78 383.91-19.24 383.76-16.7 383.62-14.16L383.62-14.16Q383.42-11.18 382.96-8.25 382.49-5.32 381.91-2.39L381.91-2.39 374.44-1.61Q374.44-3.17 374.46-4.69 374.48-6.2 374.48-7.76L374.48-7.76Q374.48-11.77 374.34-15.77 374.19-19.78 374.04-23.78L374.04-23.78Q376.63-23.88 379.15-24.07 381.66-24.27 384.3-24.37Z" opacity="1" transform="matrix(1,0,0,1,0,0)" fill="#ffffff" class="wordmark-text-0" data-fill-palette-color="quaternary" id="text-0"></path></svg></g></svg></g></svg></g></svg></g><g transform="matrix(1,0,0,1,92.89664310928246,0)"><svg viewBox="0 0 27.36515500859218 30.557666022916823" height="30.557666022916823" width="27.36515500859218"><g><svg xmlns="http://www.w3.org/2000/svg" xmlns:xlink="http://www.w3.org/1999/xlink" version="1.1" x="0" y="0" viewBox="9.700685695556787 5 80.59725336765783 90" enable-background="new 0 0 100 100" xml:space="preserve" height="30.557666022916823" width="27.36515500859218" class="icon-icon-0" data-fill-palette-color="quaternary" id="icon-0"><path d="M28.71 33.027h14.018V19.01H28.71V33.027zM30.968 24.789h3.521v-3.521h2.463v3.521h3.515v2.461h-3.515v3.518h-2.463V27.25h-3.521V24.789z" fill="#ffffff" data-fill-palette-color="quaternary"></path><path d="M28.71 53.99h14.018V39.973H28.71V53.99zM30.967 45.75h9.5v2.463h-9.5V45.75z" fill="#ffffff" data-fill-palette-color="quaternary"></path><path d="M49.673 53.99h14.017V39.973H49.673V53.99zM52.383 43.915h8.6v2.15h-8.6V43.915zM52.383 47.892h8.6v2.15h-8.6V47.892z" fill="#ffffff" data-fill-palette-color="quaternary"></path><path d="M49.673 33.027h14.017V19.01H49.673V33.027zM53.938 21.528l2.748 2.732 2.733-2.733 1.759 1.754-2.736 2.735 2.735 2.746-1.758 1.765-2.733-2.753-2.748 2.751-1.764-1.763 2.752-2.746-2.753-2.735L53.938 21.528z" fill="#ffffff" data-fill-palette-color="quaternary"></path><path d="M89.867 52.643c-2.574-4.778-8.608-8.085-8.608-13.921 0-3.043 2.062-4.018 2.062-7.471 0-3.447-0.313-7.135-3.063-11.068C75.952 14.016 66.843 5 46.639 5 22.345 5 2.034 23.17 12.535 51.445c3.586 10.281 12.887 14.521 12.887 20.584 0 2.639-0.701 7.324-2.586 11.785-2.45 5.791-3.415 7.641-3.415 7.641C18.403 93.404 19.37 95 21.57 95h39.25 0.482c1.532-1.912 0.238-8.15 0.238-8.15-0.559-2.692 1.225-4.668 3.959-4.393 0 0 1.777 0.182 6.896 0.787 3.277 0.381 6.484 0.41 8.563-0.742 5.328-2.936 0.095-8.182 0.095-10.008 0-1.832 3.771-1.752 3.771-3.773 0-2.018-3.547-1.104-3.59-2.389-0.045-1.287 4.877-0.281 4.877-2.303 0-2.021-2.023-2.451-2.023-4.705 0-1.742 4.844-2.08 5.95-4.301C90.371 54.367 90.453 53.73 89.867 52.643zM44.722 54.482c0 0.822-0.664 1.496-1.494 1.496H28.217c-0.821 0-1.495-0.674-1.495-1.496V39.473c0-0.831 0.674-1.495 1.495-1.495h15.011c0.83 0 1.494 0.664 1.494 1.495V54.482zM44.722 33.528c0 0.829-0.664 1.493-1.494 1.493H28.217c-0.821 0-1.495-0.664-1.495-1.493V18.517c0-0.821 0.674-1.495 1.495-1.495h15.011c0.83 0 1.494 0.674 1.494 1.495V33.528zM65.68 54.482c0 0.822-0.675 1.496-1.496 1.496H49.173c-0.83 0-1.494-0.674-1.494-1.496V39.473c0-0.831 0.664-1.495 1.494-1.495h15.011c0.821 0 1.496 0.664 1.496 1.495V54.482zM65.68 33.528c0 0.829-0.675 1.493-1.496 1.493H49.173c-0.83 0-1.494-0.664-1.494-1.493V18.517c0-0.821 0.664-1.495 1.494-1.495h15.011c0.821 0 1.496 0.674 1.496 1.495V33.528z" fill="#ffffff" data-fill-palette-color="quaternary"></path></svg></g></svg></g><g></g></svg></g></svg></g></svg></g></svg></g><defs></defs></svg><rect width="342.85155851775386" height="342.85155851775386" fill="none" stroke="none" visibility="hidden"></rect></g></svg></g></svg>